<svg width="699" height="699" viewBox="0 0 699 699" fill="none" xmlns="http://www.w3.org/2000/svg">
<path d="M278.236 1.49751L348.597 164.877L416.943 0.644445L419.425 178.513L545.417 52.937L479.643 218.216L644.101 150.414L520.084 277.942L697.97 278.236L534.59 348.597L698.823 416.943L520.954 419.425L646.53 545.417L481.251 479.643L549.053 644.101L421.526 520.084L421.231 697.97L350.871 534.59L282.525 698.823L280.042 520.954L154.05 646.53L219.824 481.251L55.3664 549.053L179.384 421.525L1.49761 421.231L164.877 350.87L0.644545 282.525L178.513 280.042L52.9371 154.05L218.216 219.824L150.414 55.3663L277.942 179.383L278.236 1.49751Z" fill="#D70D86"/>
</svg>
