<?xml version="1.0" encoding="utf-8"?>
<!-- Generator: Adobe Illustrator 25.0.1, SVG Export Plug-In . SVG Version: 6.00 Build 0)  -->
<svg version="1.1" id="Calque_1" xmlns="http://www.w3.org/2000/svg" xmlns:xlink="http://www.w3.org/1999/xlink" x="0px" y="0px"
	 viewBox="0 0 76.5 76.6" style="enable-background:new 0 0 76.5 76.6;" xml:space="preserve">
<style type="text/css">
	.st0{fill:#E0AA5C;}
	.st1{fill:#B3B3B3;}
	.st2{opacity:0.22;fill:#00AFAE;enable-background:new    ;}
	.st3{fill:#FFFFFF;}
	.st4{fill:none;stroke:#FFFFFF;stroke-miterlimit:10;}
</style>
<g>
	<path class="st0" d="M75.5,75.2l-0.4,0.4c-1.3,1.3-3.4,1.3-4.7,0L47.3,52.5c-1.3-1.3-1.3-3.4,0-4.7l0.4-0.4c1.3-1.3,3.4-1.3,4.7,0
		l23.1,23.1C76.8,71.8,76.8,73.9,75.5,75.2z"/>
	<path class="st1" d="M29.1,0C13,0,0,13,0,29.1s13,29.1,29.1,29.1s29.1-13,29.1-29.1C58.2,13.1,45.2,0,29.1,0z M29.1,53.7
		c-13.6,0-24.6-11-24.6-24.6s11-24.6,24.6-24.6s24.6,11,24.6,24.6C53.6,42.7,42.6,53.7,29.1,53.7z"/>
	<ellipse class="st1" cx="29.1" cy="29.2" rx="24.6" ry="24.6"/>
	<ellipse class="st2" cx="29.1" cy="29.2" rx="24.6" ry="24.6"/>
	<circle class="st3" cx="10.7" cy="20" r="1.8"/>
	<path class="st3" d="M14.1,52.5c-4-2.3-7.1-5.3-9.1-9.1c-0.5-0.9,0.3-1.4,0.7-0.7c2,3.8,5,6.8,9.1,9.1C15.5,52.2,14.8,53,14.1,52.5
		z"/>
	<path class="st3" d="M52.1,30.8c0.5,2.9-2,3.1-2.1,0.5C46.8,15,39.2,9.7,24.2,8.8c-1.7-0.1-1.5-2.1,0.3-1.9
		C40.3,7.1,49.9,14,52.1,30.8z"/>
</g>
<path class="st4" d="M-14.8,37.2v15.7c0,0.7-0.6,1.3-1.3,1.3h-23.4c-0.7,0-1.3-0.6-1.3-1.3V37.2c0-0.2,0-0.3,0.1-0.4
	c0.2-0.5,0.7-0.9,1.3-0.9h23.4c0.6,0,1.1,0.4,1.3,0.9C-14.8,36.9-14.8,37-14.8,37.2z"/>
<path class="st4" d="M-14.8,36.7l-12,12c-0.5,0.5-1.4,0.5-1.9,0l-12-12c0.2-0.5,0.7-0.9,1.3-0.9h23.4C-15.5,35.8-15,36.2-14.8,36.7z
	"/>
<g>
	<path class="st4" d="M-16.5,61.9l1.8,3.2c0.2,0.4,0.2,0.8-0.1,1.1c-1.1,1.4-2.6,2.3-4.7,2.8c-0.4,0.1-0.9-0.1-1.1-0.5l-0.9-1.5
		c-0.3-0.5-0.9-0.6-1.4-0.4c-1.8,0.8-3.8,2-6.2,3.9"/>
	<path class="st4" d="M-16.4,61.9c-3.7-5.1-27.9,12.3-24.2,17.4l2.5,2.7c0.3,0.3,0.7,0.4,1.1,0.3c1.6-0.6,3-1.7,4.1-3.5
		c0.2-0.4,0.2-0.9-0.1-1.2l-1.2-1.3c-0.4-0.4-0.3-1,0-1.4c1.3-1.4,3.1-2.9,5.6-4.7"/>
</g>
</svg>
